<svg id="Capa_1" enable-background="new 0 0 512 512" height="512" viewBox="0 0 512 512" width="512" xmlns="http://www.w3.org/2000/svg"><g><circle cx="135.5" cy="225.875" r="15.125"/><circle cx="256" cy="376.5" r="45.25"/><circle cx="376.5" cy="165.625" r="15.125"/><path d="m437.02 74.98c-48.353-48.351-112.64-74.98-181.02-74.98s-132.667 26.629-181.02 74.98c-48.351 48.353-74.98 112.64-74.98 181.02s26.629 132.667 74.98 181.02c48.353 48.351 112.64 74.98 181.02 74.98s132.667-26.629 181.02-74.98c48.351-48.353 74.98-112.64 74.98-181.02s-26.629-132.667-74.98-181.02zm14.73 181.02c.363 8.101-7.154 15-15 15-8.409 0-14.636-6.873-15-15-.363-8.101 7.154-15 15-15 8.409 0 14.636 6.873 15 15zm-271.125-30.125c0 24.882-20.243 45.125-45.125 45.125s-45.125-20.243-45.125-45.125 20.243-45.125 45.125-45.125 45.125 20.243 45.125 45.125zm30.125-90.375c.363 8.101-7.154 15-15 15-8.409 0-14.636-6.873-15-15-.363-8.101 7.154-15 15-15 8.409 0 14.636 6.873 15 15zm45.25 165.75c41.493 0 75.25 33.757 75.25 75.25s-33.757 75.25-75.25 75.25-75.25-33.757-75.25-75.25 33.757-75.25 75.25-75.25zm105.5 15c-.363-8.101 7.154-15 15-15 8.409 0 14.636 6.873 15 15 .363 8.101-7.154 15-15 15-8.409 0-14.636-6.873-15-15zm15-105.5c-24.882 0-45.125-20.243-45.125-45.125s20.243-45.125 45.125-45.125 45.125 20.243 45.125 45.125-20.243 45.125-45.125 45.125z"/></g></svg>